<?xml version="1.0" encoding="UTF-8"?>
<svg id="Camada_1" data-name="Camada 1" xmlns="http://www.w3.org/2000/svg" viewBox="0 0 280.64 370.33">
  <defs>
    <style>
      .cls-1 {
        fill: #fff;
        stroke-width: 0px;
      }
    </style>
  </defs>
  <path class="cls-1" d="M259.56,359.61c-2.35-2.04-4.45-4.31-6.41-6.72-2.9-3.56-5.47-7.43-8.02-11.26-8.95-13.46-17.91-26.92-26.86-40.38-7.42-11.15-14.59-24.22-25.97-31.85-1.31-.88-2.67-1.67-4.07-2.38h6.84c44.62-.8,80.41-37.39,80.41-82.01s-36.99-82.01-82.01-82.01h-108.15v2.81c10.85,0,18.5,8.85,18.5,18.49v126.14c1.49.78,3.41,1.61,5.72,2.24,2.96.8,5.58.98,7.54.97v-126.13c0-8.44-3.62-16.48-10.05-21.71h75.58c43.82,0,79.2,34.98,79.2,78.8,0,26.55-13.06,53.61-36.71,66.77-9.93,5.52-21.9,6.69-33.02,7.67-2.19.19-4.39.37-6.58.58-15.81,1.49-31.72,1.78-47.58,1.04-14.95-.7-30.02-1.93-44.5-5.93-4.52-1.25-8.97-2.8-13.25-4.73-24.15-10.91-43.39-34.05-54.14-57.84-4.55-10.06-7.78-20.7-9.7-31.57-1.53-8.68-2.25-17.51-2.25-26.32C14.07,61.1,68.75,2.41,135.08,2.41c25.33,0,41.41,6.43,53.47,15.28,15.28,11.26,23.32,22.11,30.96,49.85h2.82V28.14s-16.89-11.26-30.55-16.48c-6.43-2.01-23.32-11.66-56.28-11.66C60.7,0,0,60.3,0,134.68c0,66.79,51.97,126.93,118.77,132.45,16.16,1.34,33.03-1.49,48.51,3.7,13.01,4.36,23.41,13.35,30.95,24.67,11.86,17.81,23.73,35.63,35.59,53.44,2.28,3.43,4.66,7.16,4.5,11.28-.16,4.11-4.22,8.26-8.09,6.86-.04,1.08-.08,2.17-.12,3.25,16.84,0,33.67,0,50.51,0,0-.95.02-1.9.03-2.85-7.68.7-15.26-2.81-21.08-7.87Z"/>
  <path class="cls-1" d="M85.31,336.46c1.28-.2,2.57-.37,3.84-.59,3.21-.57,6.34-1.42,9.37-2.65,4.04-1.64,6.61-4.48,7.78-8.71,1.09-3.94,1.9-7.92,2.43-11.96.43-3.28.76-6.56,1.15-9.94.11,1.15.2,2.23.31,3.3.62,6,1.5,11.95,2.98,17.81,1.3,5.11,4.39,8.3,9.28,10,3.62,1.26,7.31,2.12,11.1,2.6.28.04.55.09.82.19-3.89.51-7.73,1.23-11.41,2.59-1.35.5-2.66,1.14-3.94,1.8-3.01,1.56-4.56,4.24-5.52,7.37-1.26,4.1-2.02,8.29-2.57,12.52-.42,3.15-.73,6.32-1.1,9.55-.22-2.18-.41-4.3-.66-6.41-.61-5.17-1.46-10.29-2.83-15.34-1.26-4.61-4.15-7.46-8.5-9.12-4.04-1.54-8.22-2.4-12.52-3.01Z"/>
</svg>