<?xml version="1.0" encoding="UTF-8"?>
<svg id="Camada_1" data-name="Camada 1" xmlns="http://www.w3.org/2000/svg" viewBox="0 0 749.39 224.72">
  <defs>
    <style>
      .cls-1 {
        fill: #fff;
        stroke-width: 0px;
      }
    </style>
  </defs>
  <g>
    <path class="cls-1" d="M157.5,218.22c-1.42-1.24-2.7-2.62-3.89-4.08-1.76-2.16-3.32-4.51-4.87-6.83-5.43-8.17-10.87-16.34-16.3-24.51-4.5-6.77-8.85-14.69-15.76-19.33-.79-.53-1.62-1.02-2.47-1.44h4.15c27.08-.49,48.79-22.69,48.79-49.77s-22.44-49.77-49.77-49.77H51.76v1.71c6.59,0,11.22,5.37,11.22,11.22v76.55c.9.47,2.07.98,3.47,1.36,1.8.48,3.39.6,4.58.59v-76.54c0-5.12-2.19-10-6.1-13.17h45.86c26.59,0,48.06,21.22,48.06,47.82,0,16.11-7.93,32.53-22.28,40.52-6.02,3.35-13.29,4.06-20.04,4.65-1.33.12-2.66.23-3.99.35-9.59.9-19.25,1.08-28.87.63-9.07-.43-18.22-1.17-27-3.6-2.74-.76-5.44-1.7-8.04-2.87-14.66-6.62-26.33-20.66-32.85-35.1-2.76-6.1-4.72-12.56-5.88-19.15-.93-5.27-1.36-10.62-1.36-15.97C8.54,37.08,41.72,1.46,81.97,1.46c15.37,0,25.13,3.9,32.44,9.27,9.27,6.83,14.15,13.42,18.78,30.25h1.71v-23.91s-10.25-6.83-18.54-10c-3.9-1.22-14.15-7.07-34.15-7.07C36.84,0,0,36.59,0,81.72c0,40.53,31.54,77.02,72.07,80.37,9.81.81,20.04-.9,29.43,2.24,7.89,2.64,14.2,8.1,18.78,14.97,7.2,10.81,14.4,21.62,21.6,32.43,1.38,2.08,2.83,4.35,2.73,6.84s-2.56,5.01-4.91,4.16c-.02.66-.05,1.32-.07,1.97,10.22,0,20.43,0,30.65,0,0-.58.01-1.15.02-1.73-4.66.43-9.26-1.71-12.79-4.77Z"/>
    <path class="cls-1" d="M51.77,204.16c.78-.12,1.56-.22,2.33-.36,1.95-.35,3.85-.86,5.69-1.61,2.45-1,4.01-2.72,4.72-5.29.66-2.39,1.15-4.81,1.47-7.26.26-1.99.46-3.98.7-6.03.07.7.12,1.35.19,2,.38,3.64.91,7.25,1.81,10.81.79,3.1,2.67,5.03,5.63,6.07,2.19.77,4.44,1.28,6.74,1.58.17.02.33.06.5.11-2.36.31-4.69.75-6.92,1.57-.82.3-1.61.69-2.39,1.09-1.83.95-2.77,2.57-3.35,4.47-.76,2.49-1.22,5.03-1.56,7.6-.25,1.91-.44,3.83-.67,5.79-.13-1.32-.25-2.61-.4-3.89-.37-3.14-.88-6.25-1.72-9.31-.76-2.79-2.52-4.53-5.16-5.53-2.45-.93-4.99-1.46-7.6-1.83Z"/>
  </g>
  <g>
    <g>
      <path class="cls-1" d="M605.95,97.71h15.44c-4.63-3.73-5.92-8.88-6.95-11.33l-31.66-78.76h-7.98c1.67,1.42,2.96,3.22,4.12,5.02l-29.21,73.74c-3.73,9.39-9.39,11.2-9.78,11.33h14.41c-5.66-2.57-3.99-9.14-3.48-10.55l7.85-20.59,3.6-8.88.51-1.29,16.99-42.34c1.8,3.22,2.83,6.31,3.22,7.08l14.29,35.26.52,1.29,3.6,8.88,7.46,19.82c.52,1.42,2.19,7.08-2.96,11.33Z"/>
      <path class="cls-1" d="M235.25,52.8c0-24.95,20.36-45.18,45.45-45.18,11.06,0,16.72,3.24,18.88,3.91,4.58,1.75,10.25,5.53,10.25,5.53v13.22h-.94c-2.56-9.31-5.26-12.95-10.38-16.72-4.05-2.97-9.44-5.12-17.94-5.12-22.25,0-40.59,19.69-40.59,44.24,0,25.76,18.21,43.16,42.89,44.1,12.41,0,23.06-6.61,26.3-9.84l.68.54s-10.79,10.65-29.13,10.65c-25.09,0-45.45-20.36-45.45-45.31Z"/>
      <path class="cls-1" d="M324,97.71v-.94c3.51,0,6.2-2.7,6.2-6.2V15.17c0-3.51-2.7-6.2-6.2-6.2v-.94h16.99v.94c-3.51,0-6.2,2.7-6.2,6.2v75.39c0,3.51,2.7,6.2,6.2,6.2v.94h-16.99Z"/>
      <path class="cls-1" d="M415.17,97.71c-35.2-55.3-15.91-24.95-52.87-82.81v75.66c0,3.51,2.7,6.2,6.2,6.2v.94h-13.35v-.94c3.51,0,6.2-2.7,6.2-6.2V15.17c0-2.7-.54-3.24-1.75-4.45-1.21-1.08-2.7-1.75-4.45-1.75v-.94h8.09l53,82.94V15.17c0-3.37-2.7-6.2-6.2-6.2v-.94h13.35v.94c-3.51,0-6.2,2.7-6.2,6.2v75.39c0,3.37,2.7,6.2,6.2,6.2v.94h-8.23Z"/>
      <path class="cls-1" d="M459.28,97.71v-.94c3.51,0,6.2-2.7,6.2-6.2V15.17c0-3.51-2.7-6.2-6.2-6.2h-8.5c-6.74,0-12.41,5.53-12.41,12.41h-.81v-13.35h60.42v13.35h-.94c0-6.88-5.53-12.41-12.41-12.41h-17.94c2.02,1.75,3.24,4.45,3.24,7.28v74.31c0,3.51,2.97,6.2,6.2,6.2v.94h-16.86Z"/>
      <path class="cls-1" d="M512.15,97.71v-.94c3.51,0,6.2-2.7,6.2-6.2V15.17c0-3.51-2.7-6.2-6.2-6.2v-.94h16.99v.94c-3.51,0-6.2,2.7-6.2,6.2v75.39c0,3.51,2.7,6.2,6.2,6.2v.94h-16.99Z"/>
    </g>
    <g>
      <path class="cls-1" d="M283.8,216.7v-.94c1.75,0,2.97-1.35,2.97-2.83,0-.67-.14-1.21-.54-1.75l-16.45-24.41c-1.89-2.97-5.12-4.72-8.77-4.72h-18.48l3.37,2.83v24.68c0,3.51,2.83,6.2,6.2,6.2v.94h-16.86v-.94c3.37,0,6.2-2.7,6.2-6.2v-75.39c0-3.24-2.56-6.2-6.2-6.2v-.94h36.28c15.1,0,27.51,12.41,27.51,27.51s-12,27.24-26.97,27.51h-2.29c2.43,1.21,4.45,3.1,5.93,5.39l15.78,23.47c2.02,2.97,5.53,4.86,9.31,4.86v.94h-16.99ZM294.46,154.39c0-14.7-11.87-26.43-26.57-26.43h-25.35c2.16,1.75,3.37,4.45,3.37,7.28v45.85h21.44c16.45,0,26.84-11.6,27.11-26.7Z"/>
      <path class="cls-1" d="M313.61,216.7v-.94c3.51,0,6.2-2.7,6.2-6.2v-75.39c0-3.51-2.7-6.2-6.2-6.2v-.94h54.62v13.35h-.94c0-6.88-5.53-12.41-12.41-12.41h-33.85c2.16,1.75,3.37,4.45,3.37,7.28v34.93h19.02c5.12,0,9.31-4.18,9.31-9.44h.94v19.69h-.94c0-5.13-4.18-9.44-9.31-9.44h-22.39c2.16,1.89,3.37,4.59,3.37,7.28v31.29c0,3.51,2.7,6.2,6.2,6.2h24.28c6.88,0,12.41-5.53,12.41-12.41h.94v13.35h-54.62Z"/>
      <path class="cls-1" d="M382.4,208.47v-13.22h.94c1.62,14.97,15.78,21.04,27.11,21.04,14.84,0,25.76-9.84,25.76-19.96,0-7.55-5.39-12.41-13.08-16.45l-29-15.1c-7.82-4.05-11.73-10.52-11.73-16.86,0-11.33,10.25-21.31,28.32-21.31,16.86,0,27.24,10.38,27.24,10.38v13.35h-.94c-.67-6.74-7.96-22.93-26.57-22.93-14.29,0-23.87,8.09-23.87,18.48,0,8.5,4.72,12.14,11.87,15.78l30.48,15.91c8.23,4.18,12,9.17,12,17.53-.27,10.92-10.12,21.98-30.21,21.98-17.4,0-28.32-8.63-28.32-8.63Z"/>
      <path class="cls-1" d="M455.09,216.7v-.94c3.51,0,6.2-2.7,6.2-6.2v-75.39c0-3.51-2.7-6.2-6.2-6.2v-.94h54.62v13.35h-.94c0-6.88-5.53-12.41-12.41-12.41h-33.85c2.16,1.75,3.37,4.45,3.37,7.28v34.93h19.02c5.12,0,9.31-4.18,9.31-9.44h.94v19.69h-.94c0-5.13-4.18-9.44-9.31-9.44h-22.39c2.16,1.89,3.37,4.59,3.37,7.28v31.29c0,3.51,2.7,6.2,6.2,6.2h24.28c6.88,0,12.41-5.53,12.41-12.41h.94v13.35h-54.62Z"/>
      <path class="cls-1" d="M583.9,216.7c-35.2-55.3-15.91-24.95-52.87-82.81v75.66c0,3.51,2.7,6.2,6.2,6.2v.94h-13.35v-.94c3.51,0,6.2-2.7,6.2-6.2v-75.39c0-2.7-.54-3.24-1.75-4.45-1.22-1.08-2.7-1.75-4.45-1.75v-.94h8.09l53,82.94v-75.79c0-3.37-2.7-6.2-6.2-6.2v-.94h13.35v.94c-3.51,0-6.2,2.7-6.2,6.2v75.39c0,3.37,2.7,6.2,6.2,6.2v.94h-8.23Z"/>
      <path class="cls-1" d="M606.29,216.7v-.94c3.37,0,6.2-2.7,6.2-6.2v-75.39c0-3.51-2.83-6.2-6.2-6.2v-.94h30.21c28.86,0,45.45,23.06,45.45,44.91s-15.37,44.77-45.45,44.77h-30.21ZM677.09,171.79c0-24.55-17.53-43.83-40.6-43.83h-22.93c2.16,1.75,3.37,4.45,3.37,7.28v74.31c0,3.51,2.83,6.2,6.2,6.2h13.35c22.79,0,40.6-19.42,40.6-43.96Z"/>
      <path class="cls-1" d="M694.77,216.7v-.94c3.51,0,6.2-2.7,6.2-6.2v-75.39c0-3.51-2.7-6.2-6.2-6.2v-.94h54.62v13.35h-.94c0-6.88-5.53-12.41-12.41-12.41h-33.85c2.16,1.75,3.37,4.45,3.37,7.28v34.93h19.02c5.12,0,9.31-4.18,9.31-9.44h.94v19.69h-.94c0-5.13-4.18-9.44-9.31-9.44h-22.39c2.16,1.89,3.37,4.59,3.37,7.28v31.29c0,3.51,2.7,6.2,6.2,6.2h24.28c6.88,0,12.41-5.53,12.41-12.41h.94v13.35h-54.62Z"/>
    </g>
  </g>
</svg>